<svg width="22" height="22" viewBox="0 0 22 22" fill="none" xmlns="http://www.w3.org/2000/svg">
<g id="content">
<path id="Vector" d="M4 4.96552H7.15M11 4.96552H9.25M7.15 4.96552H9.25M7.15 4.96552V4M9.25 4.96552C8.88076 6.28593 8.10754 7.53411 7.225 8.63103M4.975 11C5.68843 10.344 6.4942 9.53936 7.225 8.63103M7.225 8.63103C6.775 8.10345 6.145 7.24984 5.965 6.86364M7.225 8.63103L8.575 10.0345" stroke="#162C53" stroke-width="1.5" stroke-linecap="round" stroke-linejoin="round"/>
<path id="Vector_2" d="M6.02231 15.9777C6.07674 17.6978 6.26397 18.7529 6.90796 19.5376C7.07418 19.7401 7.25989 19.9258 7.46243 20.092C8.56878 21 10.2125 21 13.5 21C16.7875 21 18.4312 21 19.5376 20.092C19.7401 19.9258 19.9258 19.7401 20.092 19.5376C21 18.4312 21 16.7875 21 13.5C21 10.2125 21 8.56878 20.092 7.46243C19.9258 7.25989 19.7401 7.07418 19.5376 6.90796C18.7563 6.26676 17.707 6.07837 16 6.02303M6.02231 15.9777C4.30217 15.9233 3.24713 15.736 2.46243 15.092C2.25989 14.9258 2.07418 14.7401 1.90796 14.5376C1 13.4312 1 11.7875 1 8.5C1 5.21252 1 3.56878 1.90796 2.46243C2.07418 2.25989 2.25989 2.07418 2.46243 1.90796C3.56878 1 5.21252 1 8.5 1C11.7875 1 13.4312 1 14.5376 1.90796C14.7401 2.07418 14.9258 2.25989 15.092 2.46243C15.736 3.24713 15.9233 4.30217 15.9777 6.02231C15.9777 6.02231 15.9777 6.02231 16 6.02303M6.02231 15.9777L16 6.02303" stroke="#162C53" stroke-width="1.5"/>
<path id="Vector 4746" d="M12 18L12.8333 16M17 18L16.1667 16M12.8333 16L14.5 12L16.1667 16M12.8333 16H16.1667" stroke="#162C53" stroke-width="1.5" stroke-linecap="round" stroke-linejoin="round"/>
</g>
</svg>
