<svg width="25" height="24" viewBox="0 0 25 24" fill="none" xmlns="http://www.w3.org/2000/svg">
<g id="Left Icon">
<path id="Vector" d="M6.80005 13H2.80005C2.53483 13 2.28048 13.1054 2.09294 13.2929C1.90541 13.4804 1.80005 13.7348 1.80005 14V22C1.80005 22.2652 1.90541 22.5196 2.09294 22.7071C2.28048 22.8946 2.53483 23 2.80005 23H6.80005C7.06527 23 7.31962 22.8946 7.50716 22.7071C7.69469 22.5196 7.80005 22.2652 7.80005 22V14C7.80005 13.7348 7.69469 13.4804 7.50716 13.2929C7.31962 13.1054 7.06527 13 6.80005 13ZM5.80005 21H3.80005V15H5.80005V21ZM22.8 9H18.8C18.5348 9 18.2805 9.10536 18.0929 9.29289C17.9054 9.48043 17.8 9.73478 17.8 10V22C17.8 22.2652 17.9054 22.5196 18.0929 22.7071C18.2805 22.8946 18.5348 23 18.8 23H22.8C23.0653 23 23.3196 22.8946 23.5072 22.7071C23.6947 22.5196 23.8 22.2652 23.8 22V10C23.8 9.73478 23.6947 9.48043 23.5072 9.29289C23.3196 9.10536 23.0653 9 22.8 9ZM21.8 21H19.8V11H21.8V21ZM14.8 1H10.8C10.5348 1 10.2805 1.10536 10.0929 1.29289C9.90541 1.48043 9.80005 1.73478 9.80005 2V22C9.80005 22.2652 9.90541 22.5196 10.0929 22.7071C10.2805 22.8946 10.5348 23 10.8 23H14.8C15.0653 23 15.3196 22.8946 15.5072 22.7071C15.6947 22.5196 15.8 22.2652 15.8 22V2C15.8 1.73478 15.6947 1.48043 15.5072 1.29289C15.3196 1.10536 15.0653 1 14.8 1ZM13.8 21H11.8V3H13.8V21Z" fill="#162C53"/>
</g>
</svg>
